<mxfile host="65bd71144e" pages="2">
    <diagram id="RY7CtHoaN-A8CW_q10oP" name="第 1 页">
        <mxGraphModel dx="988" dy="441" grid="1" gridSize="10" guides="1" tooltips="1" connect="1" arrows="1" fold="1" page="1" pageScale="1" pageWidth="827" pageHeight="1169" math="0" shadow="0">
            <root>
                <mxCell id="0"/>
                <mxCell id="1" parent="0"/>
                <mxCell id="CrwLclSFtTN-cUR85CHB-8" value="报警开关" style="edgeStyle=orthogonalEdgeStyle;rounded=0;orthogonalLoop=1;jettySize=auto;html=1;exitX=0.75;exitY=1;exitDx=0;exitDy=0;" parent="1" source="CrwLclSFtTN-cUR85CHB-1" target="CrwLclSFtTN-cUR85CHB-7" edge="1">
                    <mxGeometry x="0.6842" relative="1" as="geometry">
                        <mxPoint as="offset"/>
                    </mxGeometry>
                </mxCell>
                <mxCell id="CrwLclSFtTN-cUR85CHB-12" value="显示字符" style="edgeStyle=orthogonalEdgeStyle;rounded=0;orthogonalLoop=1;jettySize=auto;html=1;entryX=1;entryY=0.5;entryDx=0;entryDy=0;exitX=0.25;exitY=1;exitDx=0;exitDy=0;" parent="1" source="CrwLclSFtTN-cUR85CHB-1" target="CrwLclSFtTN-cUR85CHB-11" edge="1">
                    <mxGeometry x="0.3" relative="1" as="geometry">
                        <mxPoint x="340" y="310" as="sourcePoint"/>
                        <mxPoint x="210" y="350" as="targetPoint"/>
                        <Array as="points">
                            <mxPoint x="350" y="390"/>
                        </Array>
                        <mxPoint as="offset"/>
                    </mxGeometry>
                </mxCell>
                <mxCell id="CrwLclSFtTN-cUR85CHB-16" value="发送数据" style="edgeStyle=orthogonalEdgeStyle;rounded=0;orthogonalLoop=1;jettySize=auto;html=1;exitX=0.75;exitY=0;exitDx=0;exitDy=0;entryX=0;entryY=0.75;entryDx=0;entryDy=0;" parent="1" source="CrwLclSFtTN-cUR85CHB-1" target="CrwLclSFtTN-cUR85CHB-15" edge="1">
                    <mxGeometry x="-0.1373" relative="1" as="geometry">
                        <mxPoint as="offset"/>
                    </mxGeometry>
                </mxCell>
                <mxCell id="CrwLclSFtTN-cUR85CHB-1" value="数据处理" style="rounded=0;whiteSpace=wrap;html=1;" parent="1" vertex="1">
                    <mxGeometry x="320" y="240" width="120" height="60" as="geometry"/>
                </mxCell>
                <mxCell id="CrwLclSFtTN-cUR85CHB-31" value="回调" style="rounded=0;orthogonalLoop=1;jettySize=auto;html=1;exitX=0;exitY=0.5;exitDx=0;exitDy=0;entryX=1;entryY=0.5;entryDx=0;entryDy=0;targetPerimeterSpacing=0;dashed=1;dashPattern=1 1;" parent="1" source="CrwLclSFtTN-cUR85CHB-2" target="CrwLclSFtTN-cUR85CHB-7" edge="1">
                    <mxGeometry relative="1" as="geometry"/>
                </mxCell>
                <mxCell id="CrwLclSFtTN-cUR85CHB-2" value="按键" style="rounded=0;whiteSpace=wrap;html=1;" parent="1" vertex="1">
                    <mxGeometry x="630" y="360" width="120" height="60" as="geometry"/>
                </mxCell>
                <mxCell id="CrwLclSFtTN-cUR85CHB-5" value="用户指令" style="endArrow=classic;html=1;rounded=0;entryX=1;entryY=0.25;entryDx=0;entryDy=0;" parent="1" source="CrwLclSFtTN-cUR85CHB-2" target="CrwLclSFtTN-cUR85CHB-1" edge="1">
                    <mxGeometry width="50" height="50" relative="1" as="geometry">
                        <mxPoint x="380" y="320" as="sourcePoint"/>
                        <mxPoint x="320" y="270" as="targetPoint"/>
                        <Array as="points">
                            <mxPoint x="690" y="255"/>
                        </Array>
                    </mxGeometry>
                </mxCell>
                <mxCell id="CrwLclSFtTN-cUR85CHB-7" value="报警器" style="rounded=0;whiteSpace=wrap;html=1;" parent="1" vertex="1">
                    <mxGeometry x="390" y="360" width="110" height="60" as="geometry"/>
                </mxCell>
                <mxCell id="CrwLclSFtTN-cUR85CHB-11" value="屏幕显示" style="rounded=0;whiteSpace=wrap;html=1;" parent="1" vertex="1">
                    <mxGeometry x="110" y="360" width="120" height="60" as="geometry"/>
                </mxCell>
                <mxCell id="CrwLclSFtTN-cUR85CHB-14" value="阻值大小" style="edgeStyle=orthogonalEdgeStyle;rounded=0;orthogonalLoop=1;jettySize=auto;html=1;exitX=1;exitY=0.5;exitDx=0;exitDy=0;entryX=0.25;entryY=0;entryDx=0;entryDy=0;" parent="1" source="CrwLclSFtTN-cUR85CHB-13" target="CrwLclSFtTN-cUR85CHB-1" edge="1">
                    <mxGeometry x="-0.5238" relative="1" as="geometry">
                        <mxPoint as="offset"/>
                    </mxGeometry>
                </mxCell>
                <mxCell id="CrwLclSFtTN-cUR85CHB-13" value="（串口）电阻值测量" style="rounded=0;whiteSpace=wrap;html=1;" parent="1" vertex="1">
                    <mxGeometry x="110" y="70" width="120" height="60" as="geometry"/>
                </mxCell>
                <mxCell id="CrwLclSFtTN-cUR85CHB-17" value="用户指令" style="edgeStyle=orthogonalEdgeStyle;rounded=0;orthogonalLoop=1;jettySize=auto;html=1;exitX=0;exitY=0.25;exitDx=0;exitDy=0;" parent="1" source="CrwLclSFtTN-cUR85CHB-15" target="CrwLclSFtTN-cUR85CHB-1" edge="1">
                    <mxGeometry x="-0.3191" relative="1" as="geometry">
                        <mxPoint as="offset"/>
                    </mxGeometry>
                </mxCell>
                <mxCell id="CrwLclSFtTN-cUR85CHB-15" value="（串口）esp8266" style="rounded=0;whiteSpace=wrap;html=1;" parent="1" vertex="1">
                    <mxGeometry x="530" y="60" width="120" height="60" as="geometry"/>
                </mxCell>
                <mxCell id="CrwLclSFtTN-cUR85CHB-18" value="USB接入管理" style="rounded=0;whiteSpace=wrap;html=1;" parent="1" vertex="1">
                    <mxGeometry x="110" y="240" width="120" height="60" as="geometry"/>
                </mxCell>
                <mxCell id="CrwLclSFtTN-cUR85CHB-32" value="提高按键检测频率" style="text;html=1;resizable=0;autosize=1;align=center;verticalAlign=middle;points=[];fillColor=none;strokeColor=none;rounded=0;" parent="1" vertex="1">
                    <mxGeometry x="500" y="415" width="120" height="30" as="geometry"/>
                </mxCell>
            </root>
        </mxGraphModel>
    </diagram>
    <diagram id="egfeUltl4mMVZ_Lij9VH" name="单线程处理流程">
        <mxGraphModel dx="1200" dy="441" grid="1" gridSize="10" guides="1" tooltips="1" connect="1" arrows="1" fold="1" page="1" pageScale="1" pageWidth="827" pageHeight="1169" math="0" shadow="0">
            <root>
                <mxCell id="0"/>
                <mxCell id="1" parent="0"/>
                <mxCell id="FH73Yc1xZNT7RrhWpvyW-30" value="" style="rounded=0;whiteSpace=wrap;html=1;strokeColor=#FFFFFF;fontColor=#330000;fillColor=none;dashed=1;" parent="1" vertex="1">
                    <mxGeometry x="270" y="380" width="330" height="370" as="geometry"/>
                </mxCell>
                <mxCell id="FH73Yc1xZNT7RrhWpvyW-3" style="edgeStyle=orthogonalEdgeStyle;rounded=0;orthogonalLoop=1;jettySize=auto;html=1;entryX=0.5;entryY=0;entryDx=0;entryDy=0;" parent="1" source="FH73Yc1xZNT7RrhWpvyW-1" edge="1">
                    <mxGeometry relative="1" as="geometry">
                        <mxPoint x="354" y="525" as="targetPoint"/>
                    </mxGeometry>
                </mxCell>
                <mxCell id="FH73Yc1xZNT7RrhWpvyW-1" value="获取按键值" style="rounded=0;whiteSpace=wrap;html=1;verticalAlign=top;" parent="1" vertex="1">
                    <mxGeometry x="294" y="405" width="120" height="95" as="geometry"/>
                </mxCell>
                <mxCell id="FH73Yc1xZNT7RrhWpvyW-5" value="指针调用" style="edgeStyle=orthogonalEdgeStyle;rounded=0;orthogonalLoop=1;jettySize=auto;html=1;exitX=0;exitY=0.5;exitDx=0;exitDy=0;fillColor=#ffe6cc;strokeColor=#d79b00;" parent="1" source="FH73Yc1xZNT7RrhWpvyW-2" edge="1">
                    <mxGeometry relative="1" as="geometry">
                        <mxPoint x="570" y="487" as="targetPoint"/>
                    </mxGeometry>
                </mxCell>
                <mxCell id="FH73Yc1xZNT7RrhWpvyW-2" value="接收GC7721数据" style="rounded=0;whiteSpace=wrap;html=1;strokeColor=#FF3333;" parent="1" vertex="1">
                    <mxGeometry x="640" y="457" width="120" height="60" as="geometry"/>
                </mxCell>
                <mxCell id="o51eOqhOZeIU4j1PNj4J-5" value="" style="edgeStyle=orthogonalEdgeStyle;rounded=0;orthogonalLoop=1;jettySize=auto;html=1;" parent="1" target="FH73Yc1xZNT7RrhWpvyW-27" edge="1">
                    <mxGeometry relative="1" as="geometry">
                        <mxPoint x="354.0000000000002" y="740" as="sourcePoint"/>
                    </mxGeometry>
                </mxCell>
                <mxCell id="FH73Yc1xZNT7RrhWpvyW-4" value="计算是否需要报警" style="rounded=0;whiteSpace=wrap;html=1;" parent="1" vertex="1">
                    <mxGeometry x="294" y="680" width="120" height="60" as="geometry"/>
                </mxCell>
                <mxCell id="FH73Yc1xZNT7RrhWpvyW-16" value="指针调用" style="edgeStyle=orthogonalEdgeStyle;rounded=0;orthogonalLoop=1;jettySize=auto;html=1;exitX=1;exitY=0.5;exitDx=0;exitDy=0;entryX=0;entryY=0.5;entryDx=0;entryDy=0;strokeColor=#FFB570;" parent="1" source="FH73Yc1xZNT7RrhWpvyW-27" target="FH73Yc1xZNT7RrhWpvyW-15" edge="1">
                    <mxGeometry relative="1" as="geometry"/>
                </mxCell>
                <mxCell id="FH73Yc1xZNT7RrhWpvyW-20" style="edgeStyle=orthogonalEdgeStyle;rounded=0;orthogonalLoop=1;jettySize=auto;html=1;strokeColor=#FFFFFF;entryX=0.5;entryY=0;entryDx=0;entryDy=0;" parent="1" source="FH73Yc1xZNT7RrhWpvyW-8" target="FH73Yc1xZNT7RrhWpvyW-10" edge="1">
                    <mxGeometry relative="1" as="geometry">
                        <mxPoint x="354" y="885" as="targetPoint"/>
                    </mxGeometry>
                </mxCell>
                <mxCell id="FH73Yc1xZNT7RrhWpvyW-8" value="调用显示器" style="rounded=0;whiteSpace=wrap;html=1;strokeColor=#FFFFFF;" parent="1" vertex="1">
                    <mxGeometry x="294" y="880" width="120" height="60" as="geometry"/>
                </mxCell>
                <mxCell id="FH73Yc1xZNT7RrhWpvyW-10" value="数据及状态发送至云端" style="rounded=0;whiteSpace=wrap;html=1;strokeColor=#FFFFFF;" parent="1" vertex="1">
                    <mxGeometry x="294" y="975" width="120" height="60" as="geometry"/>
                </mxCell>
                <mxCell id="FH73Yc1xZNT7RrhWpvyW-14" value="指针调用" style="edgeStyle=orthogonalEdgeStyle;rounded=0;orthogonalLoop=1;jettySize=auto;html=1;fillColor=#ffe6cc;strokeColor=#d79b00;entryX=0;entryY=0.5;entryDx=0;entryDy=0;" parent="1" source="FH73Yc1xZNT7RrhWpvyW-12" target="FH73Yc1xZNT7RrhWpvyW-1" edge="1">
                    <mxGeometry relative="1" as="geometry">
                        <mxPoint x="290" y="770" as="targetPoint"/>
                    </mxGeometry>
                </mxCell>
                <mxCell id="FH73Yc1xZNT7RrhWpvyW-12" value="云端指令" style="rounded=0;whiteSpace=wrap;html=1;strokeColor=#FF3333;" parent="1" vertex="1">
                    <mxGeometry x="60" y="422.5" width="120" height="60" as="geometry"/>
                </mxCell>
                <mxCell id="FH73Yc1xZNT7RrhWpvyW-21" value="流程返回" style="edgeStyle=orthogonalEdgeStyle;rounded=0;orthogonalLoop=1;jettySize=auto;html=1;entryX=1;entryY=0.75;entryDx=0;entryDy=0;strokeColor=#330000;exitX=0;exitY=0.75;exitDx=0;exitDy=0;" parent="1" source="FH73Yc1xZNT7RrhWpvyW-15" target="FH73Yc1xZNT7RrhWpvyW-27" edge="1">
                    <mxGeometry relative="1" as="geometry"/>
                </mxCell>
                <mxCell id="FH73Yc1xZNT7RrhWpvyW-15" value="按键检测" style="rounded=0;whiteSpace=wrap;html=1;strokeColor=#FFFFFF;" parent="1" vertex="1">
                    <mxGeometry x="510" y="775" width="120" height="60" as="geometry"/>
                </mxCell>
                <mxCell id="FH73Yc1xZNT7RrhWpvyW-24" value="&lt;font&gt;红色边框为中断对应的函数&lt;/font&gt;" style="text;html=1;resizable=0;autosize=1;align=center;verticalAlign=middle;points=[];fillColor=none;strokeColor=none;rounded=0;dashed=1;fontSize=20;fontColor=#FF3333;strokeWidth=3;" parent="1" vertex="1">
                    <mxGeometry x="50" y="120" width="260" height="40" as="geometry"/>
                </mxCell>
                <mxCell id="FH73Yc1xZNT7RrhWpvyW-26" value="&lt;b style=&quot;font-size: 20px;&quot;&gt;橙色连接线需要主模块声明对应函数指针，通过指针直接注入给数据处理模块数据&lt;/b&gt;" style="text;html=1;resizable=0;autosize=1;align=center;verticalAlign=middle;points=[];fillColor=none;strokeColor=none;rounded=0;dashed=1;fontColor=#FFB570;strokeWidth=3;fontSize=20;" parent="1" vertex="1">
                    <mxGeometry x="50" y="20" width="740" height="40" as="geometry"/>
                </mxCell>
                <mxCell id="FH73Yc1xZNT7RrhWpvyW-29" style="edgeStyle=orthogonalEdgeStyle;rounded=0;orthogonalLoop=1;jettySize=auto;html=1;entryX=0.5;entryY=0;entryDx=0;entryDy=0;strokeColor=#FFFFFF;fontColor=#330000;" parent="1" source="FH73Yc1xZNT7RrhWpvyW-27" target="FH73Yc1xZNT7RrhWpvyW-8" edge="1">
                    <mxGeometry relative="1" as="geometry"/>
                </mxCell>
                <mxCell id="FH73Yc1xZNT7RrhWpvyW-27" value="&lt;font style=&quot;background-color: rgb(26 , 26 , 26)&quot; color=&quot;#ffffff&quot;&gt;报警器&lt;/font&gt;" style="rounded=0;whiteSpace=wrap;html=1;strokeColor=#FFFFFF;fontColor=default;fillColor=default;" parent="1" vertex="1">
                    <mxGeometry x="294" y="775" width="120" height="60" as="geometry"/>
                </mxCell>
                <mxCell id="FH73Yc1xZNT7RrhWpvyW-31" value="黑色连接线通过主函数声明局部变量进行装配" style="text;html=1;resizable=0;autosize=1;align=center;verticalAlign=middle;points=[];fillColor=none;strokeColor=none;rounded=0;dashed=1;strokeWidth=3;fontSize=20;fontColor=#330000;" parent="1" vertex="1">
                    <mxGeometry x="50" y="70" width="420" height="40" as="geometry"/>
                </mxCell>
                <mxCell id="o51eOqhOZeIU4j1PNj4J-4" value="" style="edgeStyle=orthogonalEdgeStyle;rounded=0;orthogonalLoop=1;jettySize=auto;html=1;" parent="1" target="FH73Yc1xZNT7RrhWpvyW-1" edge="1">
                    <mxGeometry relative="1" as="geometry">
                        <mxPoint x="354" y="370" as="sourcePoint"/>
                    </mxGeometry>
                </mxCell>
                <mxCell id="o51eOqhOZeIU4j1PNj4J-3" value="按键检测" style="rounded=0;whiteSpace=wrap;html=1;strokeColor=#FFFFFF;" parent="1" vertex="1">
                    <mxGeometry x="294" y="310" width="120" height="60" as="geometry"/>
                </mxCell>
                <mxCell id="o51eOqhOZeIU4j1PNj4J-14" value="" style="edgeStyle=orthogonalEdgeStyle;rounded=0;orthogonalLoop=1;jettySize=auto;html=1;dashed=1;" parent="1" source="o51eOqhOZeIU4j1PNj4J-6" target="o51eOqhOZeIU4j1PNj4J-13" edge="1">
                    <mxGeometry relative="1" as="geometry"/>
                </mxCell>
                <mxCell id="o51eOqhOZeIU4j1PNj4J-6" value="帧数据接收（方法）" style="rounded=0;whiteSpace=wrap;html=1;" parent="1" vertex="1">
                    <mxGeometry x="450" y="457" width="120" height="60" as="geometry"/>
                </mxCell>
                <mxCell id="o51eOqhOZeIU4j1PNj4J-11" value="" style="edgeStyle=orthogonalEdgeStyle;rounded=0;orthogonalLoop=1;jettySize=auto;html=1;" parent="1" edge="1">
                    <mxGeometry relative="1" as="geometry">
                        <mxPoint x="354" y="585" as="sourcePoint"/>
                        <mxPoint x="354" y="600" as="targetPoint"/>
                    </mxGeometry>
                </mxCell>
                <mxCell id="o51eOqhOZeIU4j1PNj4J-12" value="" style="edgeStyle=orthogonalEdgeStyle;rounded=0;orthogonalLoop=1;jettySize=auto;html=1;" parent="1" target="FH73Yc1xZNT7RrhWpvyW-4" edge="1">
                    <mxGeometry relative="1" as="geometry">
                        <mxPoint x="354" y="660" as="sourcePoint"/>
                    </mxGeometry>
                </mxCell>
                <mxCell id="o51eOqhOZeIU4j1PNj4J-15" style="edgeStyle=orthogonalEdgeStyle;rounded=0;orthogonalLoop=1;jettySize=auto;html=1;entryX=1;entryY=0.5;entryDx=0;entryDy=0;dashed=1;" parent="1" source="o51eOqhOZeIU4j1PNj4J-13" edge="1">
                    <mxGeometry relative="1" as="geometry">
                        <mxPoint x="414" y="555" as="targetPoint"/>
                        <Array as="points">
                            <mxPoint x="450" y="590"/>
                            <mxPoint x="450" y="555"/>
                        </Array>
                    </mxGeometry>
                </mxCell>
                <mxCell id="o51eOqhOZeIU4j1PNj4J-13" value="帧数据（变量）" style="rounded=1;whiteSpace=wrap;html=1;" parent="1" vertex="1">
                    <mxGeometry x="470" y="570" width="80" height="40" as="geometry"/>
                </mxCell>
                <mxCell id="o51eOqhOZeIU4j1PNj4J-17" value="阈值重新计算" style="rounded=0;whiteSpace=wrap;html=1;" parent="1" vertex="1">
                    <mxGeometry x="314" y="430" width="80" height="20" as="geometry"/>
                </mxCell>
                <mxCell id="o51eOqhOZeIU4j1PNj4J-18" value="报警功能开关设置" style="rounded=0;whiteSpace=wrap;html=1;" parent="1" vertex="1">
                    <mxGeometry x="304" y="450" width="100" height="20" as="geometry"/>
                </mxCell>
                <mxCell id="o51eOqhOZeIU4j1PNj4J-19" value="将记录初始值更新" style="rounded=0;whiteSpace=wrap;html=1;" parent="1" vertex="1">
                    <mxGeometry x="304" y="470" width="100" height="20" as="geometry"/>
                </mxCell>
                <mxCell id="Kk4cBuwimxTmWTa9bsDM-2" value="电阻值计算（依赖显示字符进行计算）" style="rounded=0;whiteSpace=wrap;html=1;strokeColor=#FFFFFF;" parent="1" vertex="1">
                    <mxGeometry x="294" y="600" width="120" height="60" as="geometry"/>
                </mxCell>
                <mxCell id="Kk4cBuwimxTmWTa9bsDM-3" value="生成显示数组（&lt;br&gt;当前阻值显示\init阻值显示）" style="rounded=0;whiteSpace=wrap;html=1;" parent="1" vertex="1">
                    <mxGeometry x="294" y="525" width="120" height="60" as="geometry"/>
                </mxCell>
            </root>
        </mxGraphModel>
    </diagram>
</mxfile>